<?xml version="1.0" encoding="UTF-8"?>
<svg id="_레이어_2" data-name="레이어 2" xmlns="http://www.w3.org/2000/svg" viewBox="0 0 40 40">
  <defs>
    <style>
      .cls-1 {
        fill: #fff;
      }
    </style>
  </defs>
  <path class="cls-1" d="M36.66,14.89c-.61-.92-1.85-1.17-2.77-.55l-13.89,9.26L6.11,14.34c-.92-.61-2.16-.36-2.77,.55-.61,.92-.36,2.16,.55,2.77l15,10s.05,.02,.08,.04c.11,.07,.23,.12,.34,.16,.05,.02,.11,.05,.16,.06,.16,.04,.33,.07,.5,.07,0,0,.01,0,.02,0,0,0,0,0,0,0s0,0,0,0c0,0,.01,0,.02,0,.17,0,.34-.03,.5-.07,.06-.01,.11-.04,.16-.06,.12-.04,.23-.1,.34-.16,.03-.02,.05-.02,.08-.04l15-10c.92-.61,1.17-1.85,.55-2.77Z"/>
</svg>